<svg version="1.1" id="Layer_1" xmlns="http://www.w3.org/2000/svg" xmlns:xlink="http://www.w3.org/1999/xlink" x="0px" y="0px"
	 width="100%" viewBox="0 0 1024 1024" enable-background="new 0 0 1024 1024" xml:space="preserve">
<path fill="#000000" opacity="1.000000" stroke="none" 
	d="
M666.194336,470.596954 
	C664.352783,478.257599 659.372925,482.237305 652.507751,484.202301 
	C651.215149,484.572296 649.871521,484.745636 648.913208,485.768768 
	C639.292725,496.040039 626.513794,497.358124 613.594116,498.141602 
	C609.501160,498.389832 605.380432,498.180389 601.133362,498.180389 
	C602.366272,500.160278 603.944641,500.623627 606.168030,500.056488 
	C608.952026,499.346313 612.155518,498.924805 614.405823,500.749969 
	C622.096985,506.987976 630.239685,503.470306 638.082520,501.946686 
	C643.179749,500.956421 648.170288,499.099518 652.053833,494.818817 
	C654.520142,492.100281 658.306946,490.699219 663.011047,491.007690 
	C660.418274,494.880737 655.291443,494.715363 653.749207,498.787476 
	C657.360352,502.107117 662.197876,499.524048 666.838867,501.862946 
	C659.346008,505.274414 651.700134,501.162170 644.922668,504.392517 
	C649.551086,510.679962 655.839905,514.030090 662.385559,517.249573 
	C656.822510,518.050598 651.795532,516.295471 647.996216,512.935181 
	C640.756226,506.531952 632.753052,507.406525 624.433167,508.963531 
	C623.171692,509.199615 621.629883,509.270752 621.400574,511.020569 
	C621.192322,512.609558 622.398132,513.389099 623.477112,514.166931 
	C625.672546,515.749634 628.039673,516.628296 630.829529,516.911804 
	C638.439209,517.685303 644.984375,520.823242 650.527039,526.321289 
	C648.554993,528.198059 647.332458,526.755798 646.186462,526.092346 
	C642.991089,524.242371 639.630920,522.804932 636.111938,521.753784 
	C634.379700,521.236389 632.272034,520.507019 631.028320,522.296143 
	C629.560425,524.408020 631.340027,526.143494 632.681763,527.516113 
	C634.888306,529.773499 637.410095,531.719055 639.702209,533.897888 
	C640.939758,535.074341 642.928040,535.782471 642.746826,538.477234 
	C637.416809,537.355713 634.550171,532.236572 629.100281,530.698914 
	C624.502747,537.652527 630.015320,543.068970 632.121338,548.693115 
	C630.846863,549.978027 629.973633,549.372192 629.374695,548.552246 
	C624.638977,542.069031 620.410278,535.511719 625.102783,527.076660 
	C626.716919,524.175049 625.679932,521.636902 623.146912,519.612793 
	C620.934631,517.845032 618.872009,517.218750 616.597351,519.617615 
	C615.844666,520.411438 614.611938,520.822021 613.529541,521.219604 
	C607.274109,523.517212 605.948547,528.708130 610.476746,534.018555 
	C613.884460,538.014893 616.005005,542.517212 617.480591,548.539001 
	C612.392639,545.984314 612.591431,540.241821 608.265137,537.985107 
	C605.969543,542.294495 608.320923,547.149902 606.195435,552.612976 
	C602.947693,546.407654 604.096863,540.706726 603.339722,534.747192 
	C597.803467,537.271423 598.278442,543.584351 594.270142,546.780579 
	C594.067261,541.344543 595.515076,536.425781 599.051086,532.164795 
	C603.918152,526.299866 604.300232,522.916321 600.563049,516.529663 
	C599.406921,514.554077 598.814392,512.412537 598.444946,510.170837 
	C596.257019,531.619080 584.496948,543.085754 560.442993,547.226929 
	C554.345520,548.276672 548.253967,548.695129 542.055542,548.410583 
	C535.862732,548.126343 529.933411,546.636780 523.930603,545.062866 
	C524.476440,551.359924 531.740662,556.506775 537.786499,554.991943 
	C541.521912,554.056091 545.141174,553.342346 548.567505,556.357971 
	C546.272949,558.635803 543.019897,555.998230 540.998779,558.405823 
	C541.711548,560.987549 544.256592,560.906494 546.027222,561.899963 
	C547.714722,562.846741 549.965881,562.686768 551.754272,565.206787 
	C541.629639,566.022827 534.842041,558.301636 525.889832,556.732971 
	C526.513855,561.678101 530.408020,563.591492 533.404602,566.316406 
	C536.338684,568.984558 538.643250,572.204346 539.911194,576.796509 
	C535.029846,575.423950 534.551331,569.542419 529.742310,568.747192 
	C526.378845,572.842285 530.725037,577.243896 529.159668,582.363403 
	C526.093994,579.079468 526.173706,575.238708 525.114014,571.872803 
	C524.088135,568.614136 526.494263,564.421814 522.420654,561.750122 
	C519.049561,564.491455 518.867249,567.993958 519.148499,571.766479 
	C519.405640,575.215698 519.414307,578.697266 517.557739,582.452087 
	C514.677002,578.862000 517.141724,574.634216 514.964905,571.127319 
	C510.442993,572.031677 510.726074,577.398010 506.704834,580.438049 
	C506.961365,574.221802 509.424316,570.524475 513.006470,567.218018 
	C517.991821,562.616455 519.749084,556.954895 518.241150,549.131226 
	C512.831665,558.309204 506.067932,564.465637 497.501678,568.687378 
	C495.024780,569.908081 493.916595,572.567139 492.446411,574.774658 
	C481.627167,591.019775 475.835571,609.187622 472.388550,628.178284 
	C471.673065,632.120056 470.047394,633.476440 466.136841,633.372192 
	C457.838715,633.151001 449.530579,633.304688 440.370972,633.304688 
	C442.503021,615.825684 447.572632,599.488892 450.134308,582.189331 
	C443.865540,588.189087 435.137817,589.635376 428.449493,594.547363 
	C422.809387,598.689575 421.215942,605.526672 420.239807,612.157104 
	C419.508972,617.121460 417.837402,621.246826 412.838959,624.862366 
	C412.888184,619.870239 417.165863,617.190002 416.307404,612.981384 
	C412.667542,612.707947 410.892822,616.351746 406.793549,616.721680 
	C409.541595,609.703308 420.068848,608.853333 419.120667,599.752686 
	C414.697968,599.676086 410.767090,600.222778 408.136292,604.613708 
	C403.848053,611.770813 396.973846,615.346802 389.206390,617.503235 
	C388.293488,617.756653 387.318420,618.360779 386.118927,616.587952 
	C393.937256,612.229187 402.571411,608.618652 406.410675,599.051331 
	C402.416992,599.081116 399.387207,601.266541 396.018799,602.235046 
	C392.718414,603.183899 389.393951,604.011597 386.132416,601.407166 
	C388.476807,598.607178 392.457916,601.237915 394.286407,598.391724 
	C393.936096,595.576538 390.544861,596.181274 389.159332,592.309570 
	C400.286957,597.468445 410.114258,593.262146 420.223969,592.176819 
	C409.649841,590.091614 399.781189,585.969421 389.379272,583.940430 
	C380.704498,582.248230 379.188995,583.184387 374.979553,590.859436 
	C372.861115,594.721924 369.508789,597.891785 368.910706,602.584595 
	C368.796875,603.477722 367.905334,604.290039 366.360870,603.962341 
	C365.590942,601.645691 369.409882,596.930969 362.759247,597.439514 
	C365.125580,593.058838 372.308289,593.403015 371.346863,586.540222 
	C361.713257,586.627808 358.771637,597.178467 350.102234,600.036377 
	C352.311981,594.489502 357.154144,591.783691 359.449280,587.022217 
	C353.305695,583.074768 348.425507,588.664490 342.786713,589.058960 
	C345.797729,583.853638 353.242004,580.931396 359.828430,582.063721 
	C366.148193,583.150208 368.073456,582.694092 373.944916,578.586609 
	C369.922821,574.472107 364.926056,573.490234 359.534760,572.968018 
	C354.409393,572.471497 349.010040,572.350891 343.960327,568.143188 
	C349.593628,567.108826 354.443481,570.470581 359.300568,568.071411 
	C359.678162,563.046387 355.048035,560.469788 353.353973,555.928589 
	C357.862518,556.500549 360.086426,559.474182 361.272003,562.460266 
	C363.340393,567.670044 367.478088,569.336243 371.996582,571.755432 
	C384.700134,578.556763 398.628174,581.176392 412.235168,584.811768 
	C421.056091,587.168274 430.029755,586.321899 438.480835,582.162598 
	C425.768311,585.853210 413.491974,583.956482 401.746307,578.768372 
	C384.807404,571.286316 374.370178,558.447083 371.972961,539.803406 
	C371.476227,535.940186 369.748077,535.007568 366.410217,535.456238 
	C364.100037,535.766785 361.772644,535.986267 359.484192,536.413574 
	C355.346924,537.186218 352.045715,538.822327 350.770447,543.463867 
	C350.013214,546.220032 348.818848,549.130920 345.437225,550.619568 
	C344.402588,547.013855 348.371490,544.795837 347.268890,541.278076 
	C342.565216,540.175903 340.739655,545.799377 336.656128,546.254272 
	C337.010406,540.469849 340.694611,540.083069 356.410431,532.093933 
	C347.909668,527.127625 338.000732,529.059448 332.243378,536.791321 
	C329.565491,540.387512 326.684662,543.727295 321.015717,545.015564 
	C323.546539,540.339722 328.353241,538.241577 329.309418,533.434937 
	C325.237000,531.795044 321.819458,535.764587 317.239532,534.676758 
	C323.901215,526.613159 334.927460,530.918213 342.041962,524.525696 
	C333.071472,517.789490 319.902252,525.498962 311.497925,515.091492 
	C316.783142,515.038147 320.926361,519.104736 325.949646,516.838623 
	C324.749451,511.558838 319.841522,508.996429 317.468994,504.508911 
	C319.874634,503.287537 321.189697,504.909760 322.344055,506.042206 
	C324.954834,508.603424 327.411346,511.332947 329.799530,514.106873 
	C332.191559,516.885315 334.993103,517.166199 338.542450,516.182190 
	C336.907349,507.701935 329.748077,502.947998 325.322632,495.578491 
	C330.109100,495.716827 330.894714,499.980133 334.250519,500.729675 
	C336.085663,497.361145 333.252228,494.213654 333.190552,490.304230 
	C337.282288,492.669250 337.925446,496.110748 338.223389,499.451630 
	C339.486084,513.610840 345.580078,521.525452 359.080109,525.951294 
	C362.224548,526.982178 365.464874,527.737244 369.316559,527.786865 
	C354.388153,522.216248 344.652893,512.053345 343.919037,496.625153 
	C343.455627,486.883423 342.209778,477.412567 341.062500,467.805725 
	C339.818024,457.384735 343.822113,448.213867 351.293732,440.669464 
	C352.720642,439.228668 354.965729,438.132965 354.394165,434.663391 
	C347.481903,435.770569 340.263977,435.191528 335.320740,441.802032 
	C331.681488,446.668701 326.486877,448.807465 320.566895,449.657501 
	C324.385681,445.764648 330.423065,444.387268 332.551453,438.235687 
	C326.819153,437.059235 321.987427,440.938965 315.729187,440.550415 
	C323.904999,433.275330 334.261810,435.065948 343.021851,431.873413 
	C337.241547,424.185059 328.627533,430.793152 321.605103,426.415588 
	C325.587982,425.032532 329.236633,426.223267 332.020264,423.704742 
	C330.745667,419.331970 326.023865,418.888214 323.130127,416.171021 
	C327.004364,415.013245 330.401428,415.871155 333.509521,419.767151 
	C338.198700,425.644958 344.974030,426.773712 351.492767,428.547089 
	C354.279419,429.305176 356.279816,428.314819 356.832184,425.017639 
	C357.658417,420.085724 360.154877,415.713074 362.358398,410.875122 
	C358.347412,409.902161 355.021515,409.972107 351.708282,412.262787 
	C347.624969,415.085815 343.105682,416.567902 338.073944,415.187653 
	C340.833649,412.310059 345.327667,413.080719 348.196716,409.455139 
	C343.345673,406.276337 338.599426,403.166229 333.853180,400.056091 
	C334.020782,399.639954 334.188416,399.223846 334.356018,398.807709 
	C343.313293,400.222504 350.490601,410.087494 361.360077,404.926758 
	C356.083832,396.207642 344.908356,395.515564 338.926147,388.013306 
	C345.242554,388.824402 350.239227,393.071686 356.967865,394.869202 
	C356.389709,387.730072 351.048370,383.342560 349.166473,377.315094 
	C354.043091,380.530334 357.309814,385.035339 359.717102,390.191925 
	C360.980591,392.898468 361.711243,395.857300 363.016235,398.539825 
	C364.159576,400.889923 365.463989,404.257050 368.282501,403.928253 
	C371.651459,403.535278 374.704346,401.378082 376.172516,397.787994 
	C379.355591,390.004364 378.853699,386.974060 372.521332,380.986298 
	C367.510498,376.248047 363.137939,371.072021 359.805084,365.033722 
	C359.120514,363.793457 358.030640,362.617035 359.171021,359.999176 
	C364.500244,366.232788 368.177704,373.369171 375.956818,377.672333 
	C378.648560,367.380035 370.727203,359.925812 370.331085,350.941101 
	C374.512085,354.892639 375.481293,360.794586 379.286896,365.167206 
	C383.122528,361.225250 380.996277,355.932465 383.502136,350.533020 
	C386.273590,357.180603 385.611053,362.448639 382.829102,367.431976 
	C380.669464,371.300598 379.847809,375.091705 381.516205,379.881958 
	C385.633759,373.199829 388.973846,365.982391 395.844299,362.663849 
	C406.793671,357.375183 416.214325,350.387604 425.244904,342.282501 
	C432.262817,335.983765 441.877441,334.103882 451.223022,332.899261 
	C453.859955,332.559418 455.844482,331.550659 457.806671,329.821136 
	C463.736877,324.594177 470.663055,322.304199 478.590576,323.530334 
	C481.087738,323.916595 483.557373,323.840912 486.050385,323.451080 
	C504.715363,320.532227 517.934387,334.615570 513.812439,353.296692 
	C512.922913,357.327972 512.989685,360.828033 514.156677,364.852753 
	C516.738464,373.756927 515.775818,382.721069 511.974670,391.186676 
	C510.564880,394.326477 510.526276,397.018219 511.719696,400.213898 
	C515.071106,409.188171 514.745239,418.496124 513.645386,427.836975 
	C513.333923,430.482178 512.175415,433.735413 517.064392,434.246826 
	C518.680969,426.887939 522.301697,420.301575 518.680237,411.970581 
	C514.760254,402.952789 515.380066,393.018585 519.133484,383.683655 
	C520.398560,380.537292 520.246216,377.826202 519.167603,374.609741 
	C515.387451,363.337372 514.723511,351.708710 517.400940,340.144714 
	C520.326660,327.508148 529.653381,321.976624 543.643860,323.943909 
	C546.773132,324.383911 549.941772,324.810608 552.965027,325.684021 
	C560.189819,327.771271 567.412415,328.792389 575.024475,328.848389 
	C584.345459,328.916992 591.322998,334.553436 596.150391,342.169861 
	C598.833069,346.402313 601.828308,348.694061 606.835510,348.860138 
	C609.423645,348.945984 611.981323,349.954346 614.570129,350.549927 
	C615.438965,342.884827 610.343750,335.738953 603.025024,334.307861 
	C597.260925,333.180695 593.012085,330.172272 590.244507,325.058594 
	C594.867371,325.752838 597.647949,330.606720 603.092407,329.948914 
	C602.305420,324.120544 597.856995,320.201630 595.055786,314.271423 
	C604.874695,318.487732 604.867798,329.540131 613.065552,335.466339 
	C613.495911,325.819214 610.338562,317.877167 610.563293,309.594086 
	C615.006714,317.989227 616.557312,327.181519 618.652771,336.672852 
	C621.456055,332.923187 622.713623,329.529480 621.824829,324.977631 
	C620.646240,318.941711 621.956665,313.146362 627.339661,307.193817 
	C627.299805,314.020081 623.181641,319.333740 626.051758,325.370972 
	C632.103577,323.633820 632.234375,316.036133 638.400208,312.711731 
	C636.411743,319.477539 633.546143,324.306854 629.475098,328.511230 
	C623.458923,334.724609 620.881287,342.212769 621.276917,350.803406 
	C621.355652,352.515106 621.469604,354.194244 622.952271,355.310364 
	C632.982605,362.860687 642.231323,371.146393 647.864319,382.357269 
	C650.925598,382.070312 652.360413,380.291595 653.803101,378.783600 
	C660.593445,371.685883 667.375610,364.577484 669.155090,354.279449 
	C669.599243,351.708618 669.471863,349.510620 668.393127,347.060303 
	C665.518311,340.530029 666.952271,333.776306 671.754578,330.463776 
	C672.369141,335.051697 668.745667,339.607117 672.083191,344.319244 
	C676.818237,340.521912 678.400452,333.817200 685.003235,330.734528 
	C681.817139,340.308319 672.544983,346.488678 673.572144,357.705444 
	C682.467651,354.173553 686.815430,346.188721 693.597534,341.155609 
	C689.519226,355.550049 674.464722,360.491150 665.569946,372.051208 
	C671.647522,373.512421 675.857117,373.197784 679.978577,370.858490 
	C686.571777,367.116180 693.670715,365.366547 701.405457,366.149780 
	C695.786072,369.982086 688.386047,369.864716 682.329407,374.558136 
	C690.318481,380.167419 698.789001,378.629028 706.877625,378.043793 
	C707.283264,380.424316 705.828857,380.574677 704.828979,380.845276 
	C696.861328,383.001404 688.892212,382.990021 681.406799,379.341675 
	C673.891602,375.678772 667.214905,377.746643 660.545654,381.288666 
	C659.674561,381.751282 658.940369,382.475708 658.154297,383.093567 
	C650.374329,389.208618 649.891907,391.710876 654.562500,400.583496 
	C655.367249,402.112305 656.424866,402.901520 658.097168,402.779968 
	C668.552002,402.020172 679.022400,401.405334 689.446045,400.336609 
	C691.958557,400.079010 694.243286,398.070068 696.760071,397.263641 
	C699.863464,396.269196 703.109436,395.392792 706.736267,397.461212 
	C703.491821,400.321198 698.715515,398.333496 696.111267,402.053345 
	C697.748169,405.463531 702.246460,404.538361 705.113708,407.522980 
	C696.843567,410.314209 690.096008,400.535126 682.574524,406.010651 
	C686.243286,411.088104 691.078430,412.739258 699.969421,411.351288 
	C705.235413,410.529175 709.884277,411.827515 714.188477,414.664490 
	C715.634766,415.617737 717.425842,416.527069 717.280151,419.075806 
	C714.231384,419.578369 712.688416,416.723419 710.277100,415.982849 
	C707.850281,415.237549 705.514954,414.681732 702.683350,415.859406 
	C704.625244,420.848175 709.819946,424.050568 710.656738,430.629547 
	C703.040527,425.562592 700.626831,414.078796 688.871033,416.613159 
	C688.968445,422.278534 693.503845,425.564484 696.066040,430.024689 
	C691.718689,429.911011 687.552673,426.011993 685.224609,420.344177 
	C681.033020,410.139587 672.974426,406.276245 661.562866,409.284546 
	C670.698914,422.542999 670.600525,436.708038 665.337097,451.906708 
	C672.896423,447.858093 671.612488,438.046783 678.674561,433.909027 
	C679.958984,438.110626 675.240112,440.274933 676.338196,444.060822 
	C680.803894,443.973511 683.544006,439.619049 688.643311,438.865448 
	C685.386597,446.564667 676.526917,446.500610 671.963989,452.421661 
	C678.193726,456.457825 686.915466,453.523193 691.598633,460.866760 
	C687.139648,461.781311 684.076721,457.331390 679.832336,458.870789 
	C679.438904,462.874451 684.229065,464.001129 684.908752,467.849609 
	C680.277527,467.425140 678.140869,464.299347 676.083191,461.188019 
	C672.740356,456.133606 668.479187,455.594269 663.577942,459.924347 
	C665.286438,463.064880 666.962402,466.339386 666.194336,470.596954 
M470.001556,400.000092 
	C470.001556,400.000092 469.982727,399.980530 470.186829,400.644531 
	C473.159302,406.127075 477.158905,410.792297 481.835449,414.853760 
	C488.391907,420.547913 491.252258,419.965515 495.625366,412.187378 
	C496.295807,410.994873 496.728302,409.503754 498.461334,410.277008 
	C500.001312,410.964081 499.671844,412.440125 499.406799,413.776520 
	C498.647949,417.602509 495.593109,419.792114 492.768311,422.414978 
	C497.225464,426.001709 501.813232,428.437622 507.234741,430.319519 
	C510.292999,414.179688 509.264862,399.500977 497.036957,387.465240 
	C495.506195,385.958527 494.232910,384.568329 495.674713,382.322418 
	C498.477173,377.957031 498.846863,373.324066 497.177063,368.453644 
	C496.729462,367.147949 496.485992,365.636841 498.245850,365.166901 
	C499.872833,364.732483 500.621033,366.108978 501.145935,367.331421 
	C502.792419,371.165710 503.143524,375.325134 501.521515,379.017181 
	C499.132843,384.454254 502.150085,386.855560 506.307709,389.762817 
	C510.680267,380.339935 510.994080,371.197968 507.603058,361.938416 
	C505.806854,357.033661 502.593353,353.704041 496.776703,354.152527 
	C495.460388,354.253998 494.061981,354.329681 493.268677,352.876587 
	C495.660187,347.748383 494.686920,345.095367 489.189087,342.658569 
	C482.526184,339.705383 476.000397,340.924133 470.099396,344.524567 
	C467.157166,346.319763 464.385529,347.578735 460.817078,347.099274 
	C459.573242,352.675903 458.426819,357.919830 459.841492,363.030853 
	C469.460754,364.467651 466.653534,353.345276 472.028046,350.775085 
	C473.535400,352.080444 473.417053,353.082703 473.321594,354.082336 
	C472.813629,359.403259 473.667450,360.268707 479.146576,359.953033 
	C479.809814,359.914856 480.465515,359.750946 481.128784,359.706726 
	C482.472992,359.617126 483.996094,359.433807 484.235840,361.287354 
	C484.459473,363.016418 482.995056,363.556244 481.732086,363.882050 
	C480.463593,364.209229 478.989624,364.570770 477.801025,364.232025 
	C472.861969,362.824188 468.881439,364.872223 464.682800,367.035980 
	C458.616547,370.162262 458.501312,369.992126 461.196930,376.764496 
	C464.500275,375.136780 467.846863,374.580841 471.065979,376.919128 
	C472.508820,377.967102 474.679016,379.121704 473.473450,381.183075 
	C472.227936,383.312714 470.595093,381.385315 469.232422,380.667480 
	C467.689667,379.854797 466.120972,379.214600 464.595581,380.528107 
	C462.970337,381.927582 462.173798,383.663971 462.960846,385.865570 
	C464.748688,390.867035 466.297424,395.984314 470.001556,400.000092 
M349.363312,477.060547 
	C350.082123,479.855896 352.624542,482.110596 351.348450,485.507843 
	C347.001007,497.081390 351.733734,506.406128 359.453094,514.466431 
	C365.196045,520.463074 372.022614,522.519470 380.303131,518.514404 
	C388.379913,514.607910 396.823090,511.391235 405.709869,509.612640 
	C406.843781,509.385712 408.016022,509.063690 408.289978,507.590057 
	C407.559204,505.063263 404.769409,503.830719 404.426361,500.813354 
	C403.921387,496.371307 400.868011,494.309143 396.409088,494.308044 
	C392.809631,494.307159 389.556122,495.480865 386.386902,497.044342 
	C385.068054,497.695007 383.523712,498.690186 382.469421,496.819763 
	C381.261230,494.676270 383.121155,493.891205 384.536102,493.060516 
	C385.393921,492.556915 386.333740,492.188293 387.250153,491.790009 
	C392.981750,489.298859 400.556091,490.505402 403.937500,483.158875 
	C404.464294,482.014374 406.963287,481.133759 408.344666,482.769348 
	C410.061584,484.802338 407.905548,485.521301 406.640869,486.497498 
	C405.053284,487.722870 402.762756,489.499176 404.378113,491.300140 
	C408.025848,495.366974 409.234131,500.802429 412.758728,504.854492 
	C413.798279,506.049622 414.915039,506.992676 416.563538,506.865021 
	C422.282623,506.421997 427.997803,505.928772 433.871948,505.441620 
	C432.814819,502.069763 430.416534,501.276123 428.038391,500.491821 
	C425.509338,499.657776 422.915009,499.000671 420.437225,498.039307 
	C418.683868,497.359009 415.833588,496.919281 416.556854,494.370148 
	C417.366791,491.515503 419.854797,493.288269 421.657288,493.638885 
	C424.697601,494.230286 427.555145,495.887146 431.040100,495.298706 
	C431.999420,489.970001 434.550629,485.113007 432.771179,479.308380 
	C431.415344,474.885620 432.960449,470.385864 435.679382,466.546753 
	C436.863678,464.874542 438.040314,462.005219 440.564941,463.712006 
	C443.152679,465.461548 440.293030,467.070221 439.435150,468.642517 
	C437.191711,472.754181 434.962494,476.861481 438.291229,481.518158 
	C444.150604,480.328400 449.694092,479.098267 452.729889,472.807343 
	C456.099518,480.661285 456.095825,480.669067 463.396545,484.138092 
	C464.385529,484.608002 465.143646,485.232666 464.915070,486.393005 
	C464.697845,487.495667 463.794250,487.979889 462.744232,488.156128 
	C459.932129,488.628113 457.150818,487.956909 455.256683,486.108368 
	C450.852570,481.810272 446.416107,483.314148 441.949493,485.476440 
	C437.295166,487.729706 434.956146,492.922516 436.321045,498.166718 
	C437.501404,502.701874 441.355804,504.520508 445.433289,504.630890 
	C454.582642,504.878601 462.987122,508.015900 471.560730,510.526367 
	C474.115753,511.274536 476.300079,512.066528 478.029114,509.160614 
	C479.005066,507.520355 480.168823,506.063751 478.316071,504.328339 
	C476.355835,502.492279 475.790771,498.975983 471.396912,500.557709 
	C465.085938,502.829498 458.938080,500.372345 452.952087,498.244446 
	C451.790802,497.831635 450.791992,497.053040 451.271973,495.643616 
	C451.726227,494.309753 452.917450,494.113525 454.165924,494.409576 
	C457.080780,495.100800 459.955444,496.173615 462.906372,496.448883 
	C466.906799,496.822052 471.399384,498.094971 474.030243,493.300507 
	C474.592621,492.275726 475.117737,491.009766 476.541809,491.291992 
	C478.180450,491.616669 478.250122,493.073730 478.346436,494.448090 
	C478.582275,497.813385 480.252167,500.284637 483.251953,502.465820 
	C487.006683,498.304565 490.543213,494.385132 494.270691,490.254059 
	C492.188019,489.651520 489.962830,492.564667 488.775360,489.780792 
	C487.786499,487.462585 490.311890,486.755371 491.583466,485.661133 
	C494.381378,483.253357 495.535431,480.837677 492.720062,477.629211 
	C491.729126,476.499908 491.095734,475.026184 492.915405,473.550690 
	C496.492981,474.134949 497.676270,477.172485 498.922577,479.992432 
	C499.892365,482.186798 500.981201,483.600616 503.337372,481.744965 
	C509.576447,476.831268 515.761902,471.849518 521.946472,466.912659 
	C521.192627,465.108154 519.578674,464.887756 518.275635,464.289825 
	C494.943817,453.582520 470.248779,451.507294 445.028625,452.753601 
	C436.380707,453.180969 427.751740,453.580658 419.092010,452.492615 
	C411.914856,451.590851 404.590210,449.448792 397.574646,453.332153 
	C396.245148,454.068085 394.853699,455.243134 393.841949,453.195831 
	C393.046570,451.586304 394.030334,450.271881 395.386658,449.405762 
	C398.265778,447.567200 401.467377,446.738007 404.869781,446.719421 
	C409.320465,446.695129 413.771362,446.713440 418.483185,446.713440 
	C418.623169,444.406647 419.020020,442.255798 418.825043,440.160065 
	C418.425201,435.862366 414.014008,436.921539 411.649384,435.194153 
	C409.899109,433.915649 408.747498,435.087769 407.537323,436.531219 
	C399.248474,446.417664 387.565216,446.518738 379.375244,436.691132 
	C377.494843,434.434723 375.718994,433.512238 372.807495,434.961395 
	C372.929657,435.778351 373.061340,436.568878 373.163788,437.363190 
	C373.357635,438.865845 375.023499,440.934174 372.670624,441.650848 
	C370.300049,442.372864 369.988251,439.794281 369.216858,438.242157 
	C368.997955,437.801666 368.858978,437.299042 368.790558,436.809967 
	C368.448334,434.362976 366.735931,434.126740 364.743073,434.157562 
	C362.545715,434.191498 361.261383,435.063416 361.274078,437.409271 
	C361.288300,440.029449 359.559387,441.599915 357.828583,443.216827 
	C347.987366,452.410248 344.704651,463.343781 349.363312,477.060547 
M547.451721,337.116699 
	C547.915771,333.434052 545.786743,331.101715 542.681152,330.550446 
	C533.912292,328.993896 526.227783,330.471588 523.429993,341.387573 
	C521.417236,349.240509 521.954651,357.265472 522.867981,365.218323 
	C523.118835,367.403442 522.775818,369.936554 524.976135,371.929504 
	C526.890564,369.846924 528.583191,367.580048 530.695312,365.815216 
	C533.365112,363.584412 533.778198,361.867432 531.515564,358.816467 
	C527.498169,353.399292 527.629761,344.918854 531.116577,340.510986 
	C532.085876,339.285614 533.185730,337.987976 534.838562,339.024658 
	C536.580688,340.117310 535.738525,341.550293 534.874268,342.898285 
	C532.187805,347.088470 532.454895,351.428101 534.505005,355.733490 
	C535.393616,357.599731 536.665222,359.177948 539.178162,358.493378 
	C540.566650,358.115112 541.984192,358.103638 542.523804,359.700409 
	C543.045349,361.243652 541.718140,362.110779 540.750000,362.983185 
	C539.886841,363.760925 538.910156,364.411957 537.991577,365.129089 
	C524.444641,375.704071 518.498657,394.663025 524.038940,410.887970 
	C526.053162,416.786774 527.273560,422.336243 524.116577,428.173950 
	C522.899170,430.425079 523.211243,433.047852 523.360474,435.546844 
	C523.472107,437.414673 524.909668,437.991821 526.386047,438.394287 
	C528.151611,438.875580 528.850830,437.615143 529.159729,436.275848 
	C530.636353,429.874359 536.545837,428.593414 541.192810,426.007233 
	C543.186462,424.897705 544.445435,426.490204 543.894653,428.583466 
	C543.270386,430.955872 542.898376,433.116699 544.657410,435.163879 
	C545.566589,436.222076 546.372925,437.487976 544.764160,438.538849 
	C543.375427,439.446045 542.265686,438.510803 541.269836,437.541107 
	C539.961609,436.267273 539.960327,434.089203 538.119141,433.034698 
	C535.164978,433.728485 533.621948,435.817230 533.420715,438.667328 
	C533.186401,441.984741 536.353821,441.792725 538.317444,442.654938 
	C540.750366,443.723236 543.372070,444.361328 545.805969,445.427734 
	C548.072021,446.420593 549.873779,446.236420 551.671997,444.451447 
	C564.048523,432.166229 575.301697,419.095703 581.469849,402.416077 
	C582.217224,400.395081 583.254822,398.368866 580.893982,396.583923 
	C578.677673,394.908203 576.284485,394.653229 573.823242,395.650299 
	C570.648682,396.936279 565.916077,405.510925 566.674561,408.891632 
	C567.896179,414.335846 566.743896,418.581055 561.944763,421.932098 
	C559.054993,423.949951 556.816895,426.765350 557.843201,430.855438 
	C558.199219,432.274384 558.858704,434.256317 556.895142,434.648651 
	C554.440125,435.139191 554.065186,432.826538 553.785095,431.049866 
	C552.954590,425.783234 554.958252,421.612122 558.988342,418.292145 
	C561.071594,416.576050 562.817688,414.851471 562.799866,411.706116 
	C562.746094,402.230438 555.597107,397.992615 547.082458,402.611725 
	C545.835022,403.288483 544.658569,404.018402 543.594055,402.570984 
	C542.766968,401.446381 543.313843,400.300262 544.119507,399.394897 
	C544.775085,398.658112 545.511719,397.859894 546.382996,397.472504 
	C549.606995,396.038940 550.083374,393.523621 549.486389,390.446686 
	C549.187988,388.908539 548.033081,386.758118 550.407654,386.260620 
	C552.822754,385.754608 552.946411,388.221039 553.614685,389.885864 
	C554.379456,391.791077 553.197815,394.663727 555.840027,395.567078 
	C558.723083,396.552826 560.978088,398.528290 563.568359,399.947998 
	C567.427673,396.745270 569.203918,392.334839 570.945129,387.510010 
	C573.196899,389.531006 574.764771,390.975739 577.426147,390.995056 
	C579.769226,391.011993 582.103638,392.229919 584.404846,392.906586 
	C587.085144,387.473602 589.602356,369.369385 588.500854,363.911224 
	C587.685730,359.872406 581.822021,355.749146 577.467773,356.192780 
	C571.640320,356.786469 574.196655,360.614624 574.598755,363.637146 
	C574.782104,365.015228 574.714661,366.524506 573.011292,366.793457 
	C571.269714,367.068420 570.931396,365.594238 570.570374,364.252777 
	C570.048767,362.314178 569.538208,359.999969 567.506653,359.373871 
	C563.938110,358.274048 563.836914,355.757690 563.685547,352.763275 
	C563.327393,345.681183 556.949463,340.584930 549.923096,341.595612 
	C548.322510,341.825806 546.756165,342.822266 545.233582,341.460510 
	C544.440125,339.485229 546.363586,338.924988 547.451721,337.116699 
M444.172058,402.354553 
	C446.415100,404.035156 448.807434,405.294067 452.517731,405.524109 
	C446.479462,393.994476 444.149231,382.201477 443.293884,370.260529 
	C439.417145,369.226929 438.710266,373.930450 435.244812,373.618469 
	C434.029633,370.492310 435.794891,368.640869 437.863678,366.882721 
	C440.965179,364.246979 439.877441,361.080414 438.605469,358.202942 
	C437.198853,355.020844 434.245880,354.868896 431.317291,355.692383 
	C428.128418,356.589020 425.704041,358.503723 424.361908,361.665558 
	C423.335083,364.084564 422.757111,366.120209 426.331177,366.894806 
	C427.977234,367.251587 429.468689,368.212616 428.765991,370.350708 
	C428.076965,371.120880 427.281281,371.198029 426.420258,371.112579 
	C418.213562,370.297729 412.239227,376.332397 413.442657,384.399200 
	C413.757294,386.508118 414.691864,388.524414 415.339630,390.583893 
	C415.709625,391.760101 415.894226,392.935974 414.560028,393.626068 
	C413.201294,394.328827 412.259949,393.539001 411.724731,392.425903 
	C408.024200,384.729858 406.985138,375.417816 415.792297,369.209320 
	C418.364288,367.396240 419.536163,365.658173 419.915436,362.504272 
	C420.706573,355.925873 427.630737,350.882904 434.394531,351.358826 
	C437.358368,351.567383 439.823914,352.634338 441.626434,355.178528 
	C443.384949,357.660583 443.455994,360.436096 443.331665,363.342773 
	C444.438873,355.145630 447.356995,347.560913 450.112518,340.073700 
	C448.913025,339.065155 447.947540,339.523926 446.988678,339.722900 
	C435.825226,342.039429 426.358246,347.246155 419.413940,356.429016 
	C416.978912,359.648987 414.090607,361.418732 410.171600,362.501129 
	C397.159515,366.094849 385.926056,379.642181 385.569489,391.551727 
	C391.583038,392.678406 393.189026,394.935242 392.082092,400.709473 
	C389.577881,401.589966 389.240356,398.309570 387.225769,398.099731 
	C389.924347,406.374573 390.430725,406.888885 398.165497,408.990448 
	C404.113434,410.606537 408.977417,414.336700 409.736816,420.201538 
	C410.639862,427.175934 414.710541,429.605621 420.261383,431.660461 
	C422.931305,432.648804 424.956055,432.688232 426.960938,430.089447 
	C422.171204,426.306915 417.270905,422.848419 412.860748,418.849335 
	C407.451050,413.943817 401.710602,409.085510 398.987335,402.053833 
	C397.653229,398.609100 396.680023,395.300537 393.526306,392.918701 
	C391.369476,391.289795 390.985596,388.587524 391.731506,386.041046 
	C393.226013,380.939148 395.963898,376.625702 400.597870,373.778442 
	C402.271942,372.749878 404.123779,371.556549 405.840790,374.346436 
	C403.873962,377.388611 400.182251,378.759979 398.277466,381.934540 
	C395.451935,386.643616 395.588837,389.044159 399.262878,391.264435 
	C401.347046,390.757996 401.577026,386.484283 404.172333,388.117126 
	C406.656128,389.679779 404.068024,391.985748 403.422974,393.846802 
	C402.520905,396.449341 401.877869,398.888275 403.343323,401.521149 
	C406.889374,407.892059 412.026428,412.692963 418.121826,417.460205 
	C417.977631,412.519653 413.960663,408.466217 416.928680,403.945648 
	C419.731323,404.698883 419.461914,406.742035 419.862091,408.192169 
	C421.922516,415.659210 425.839935,422.101318 431.668121,426.975159 
	C443.538971,436.902130 456.493500,445.003784 472.213379,447.376129 
	C478.955048,448.393555 485.771210,448.948700 492.484528,450.112030 
	C497.335022,450.952576 502.071716,452.450012 506.599823,453.589233 
	C507.931793,452.257050 507.921265,451.052429 507.443726,449.975403 
	C506.468597,447.776215 487.875275,440.243805 485.551422,441.006866 
	C485.393524,441.058716 485.244629,441.137512 485.087433,441.191956 
	C474.654022,444.805939 464.732208,442.029724 457.687592,433.582581 
	C456.876740,432.610260 456.463562,431.143646 454.914093,430.960693 
	C449.267426,434.891449 445.460754,435.323456 441.281494,431.940704 
	C436.718048,428.247070 434.704742,423.200836 435.149689,417.357361 
	C435.276428,415.693085 435.354950,413.061462 437.766113,413.199158 
	C440.599457,413.360962 439.448090,415.899994 439.340240,417.548157 
	C439.086548,421.425049 440.106689,424.837402 442.877502,427.575989 
	C444.614624,429.292999 446.757599,430.346161 449.231323,429.319183 
	C451.388153,428.423798 452.579834,426.701874 452.709869,424.272736 
	C452.793854,422.704193 452.356354,420.803650 455.518951,420.000793 
	C457.394165,425.409058 459.540222,430.972168 464.593842,434.531952 
	C469.889679,438.262451 475.430145,440.090271 482.086304,437.046692 
	C481.392944,436.384705 480.988342,435.890442 480.485718,435.534515 
	C471.453247,429.137787 463.200775,421.931580 456.909302,412.713562 
	C455.634735,410.846130 453.812256,410.590820 451.786804,410.168091 
	C443.150818,408.365601 436.957611,403.520416 434.325989,394.873352 
	C432.899902,390.187347 433.470642,385.617554 436.396057,381.541962 
	C437.203766,380.416748 438.370911,379.513824 439.793121,380.507355 
	C440.956390,381.320038 440.718811,382.462402 440.050934,383.604584 
	C435.881561,390.735168 438.057983,396.644897 444.172058,402.354553 
M558.462585,523.340454 
	C557.360840,520.187073 560.062195,520.317200 561.721375,519.651794 
	C565.523438,518.126770 567.622131,515.462036 567.577209,511.283386 
	C567.560303,509.715942 566.318604,507.762482 568.331421,506.775726 
	C570.777039,505.576904 571.234375,508.236084 572.454285,509.371399 
	C575.640076,512.336243 581.622437,512.084290 585.286072,508.821564 
	C588.857056,505.641479 588.961304,502.730133 585.602295,498.391357 
	C583.550171,495.740723 581.216431,493.349762 578.337158,491.604156 
	C570.945679,487.123047 564.776794,489.497162 562.188965,497.745178 
	C561.940857,498.536011 561.678528,499.326630 561.354492,500.088287 
	C560.987915,500.950043 560.253540,501.370300 559.353455,501.200378 
	C558.449524,501.029816 557.875732,500.327728 557.875305,499.433014 
	C557.874756,498.118073 557.911072,496.769714 558.193848,495.493713 
	C559.549866,489.374084 563.769470,486.039581 570.214783,484.685272 
	C554.668518,474.456451 548.405579,473.507477 538.321716,481.470886 
	C541.203613,485.197540 547.138733,486.039490 548.640503,492.161804 
	C545.994080,492.313477 543.852600,492.429993 543.339905,495.290375 
	C542.152771,501.914185 545.704590,509.110352 551.685913,511.972351 
	C553.250610,512.721008 556.650085,512.526306 555.500610,515.346375 
	C554.436890,517.955994 551.678284,516.390503 549.768127,515.689941 
	C546.893005,514.635498 544.567322,512.694824 542.880066,510.123322 
	C539.660767,505.216919 537.757996,499.882935 539.492798,494.044952 
	C540.768616,489.751312 539.107361,487.550720 535.423096,485.850983 
	C531.237915,483.920166 527.185913,485.563995 522.657654,491.493896 
	C525.419739,495.622009 527.909363,499.944061 527.278931,505.284821 
	C527.099487,506.805328 527.013367,508.544891 524.968628,508.459900 
	C523.280701,508.389740 523.096558,506.815979 522.985107,505.468231 
	C522.807800,503.322540 522.944092,501.157562 521.990295,499.106232 
	C519.824402,494.448059 518.085815,494.048706 514.354370,497.365509 
	C508.744537,502.351959 503.384033,507.594513 498.626678,513.395813 
	C496.483917,516.008728 493.717987,518.313660 492.790680,522.128235 
	C512.108521,534.708008 531.803589,544.978760 556.106506,540.963806 
	C555.402588,537.083252 552.958862,536.148438 550.425415,535.168823 
	C548.752991,534.522095 546.601624,533.675720 547.494202,531.331177 
	C548.406921,528.933716 550.271729,530.652710 551.761719,530.915955 
	C553.385864,531.202759 555.018005,531.649536 556.648499,531.657410 
	C561.738159,531.682007 566.558533,530.633972 570.759399,527.525574 
	C572.022095,526.591248 573.516174,525.749451 574.668701,527.409729 
	C575.847961,529.108582 574.345764,530.156189 573.155640,531.059631 
	C571.020569,532.680481 568.678894,533.833984 566.069519,534.620911 
	C564.290222,535.157471 561.969849,534.849548 560.849182,536.998718 
	C561.461182,539.733643 563.200806,539.835938 565.414246,539.180969 
	C570.715515,537.612244 575.880188,535.651001 580.373474,532.424133 
	C587.817383,527.078186 591.726746,519.845520 591.580261,509.806274 
	C587.458801,512.785278 583.959473,515.118774 583.485840,520.036560 
	C583.345337,521.494507 582.311096,522.905273 580.515137,522.932617 
	C579.325012,522.950806 578.566589,521.948853 578.845093,520.920593 
	C580.770752,513.810425 575.506104,515.661072 572.075378,515.011536 
	C569.267090,520.577515 566.063843,525.102173 558.462585,523.340454 
M564.307312,458.940521 
	C560.701904,459.576294 557.232666,461.288788 553.311157,460.669647 
	C553.640747,458.031250 555.644836,457.153290 557.030701,455.819336 
	C571.333008,442.052460 583.331543,426.622833 591.075989,408.195099 
	C597.938538,391.865906 600.692261,374.983948 596.703552,357.468140 
	C595.268066,351.164673 592.238831,345.487762 588.171631,340.412842 
	C590.114502,344.771851 592.362671,348.938263 593.337097,353.713745 
	C597.141235,372.356018 594.202759,390.125366 586.638306,407.294098 
	C574.944397,433.835083 555.214905,453.367554 531.318054,468.790253 
	C506.867889,484.569977 488.021332,505.778320 470.536377,528.952759 
	C473.472198,530.647400 475.799927,529.167114 477.993073,527.358704 
	C481.754883,524.256958 484.546295,520.291931 487.509308,516.476746 
	C501.136200,498.931000 516.666382,483.554504 537.024475,473.860382 
	C563.293335,461.351654 591.182617,456.823914 620.026611,457.987793 
	C630.133423,458.395630 640.266602,459.714111 649.891052,463.291626 
	C652.537903,464.275482 655.188293,465.357910 656.916687,467.820221 
	C658.705933,470.369141 657.612610,473.054657 656.563110,476.614777 
	C662.648254,469.131042 661.675049,464.807495 654.112305,461.401794 
	C644.100403,456.893219 633.450745,455.012817 622.631042,454.308868 
	C603.273071,453.049408 584.047729,454.188507 564.307312,458.940521 
M644.993713,415.501434 
	C641.415039,413.091003 638.725220,413.365051 635.657837,416.989655 
	C629.731323,423.992706 620.927063,425.897980 613.106079,421.342743 
	C607.640564,418.159393 604.665710,420.531494 600.819641,424.017944 
	C602.755493,424.887482 604.927734,425.196075 604.352600,427.734985 
	C602.125122,429.721344 599.010132,427.020508 596.647156,429.388062 
	C597.349365,431.480255 598.215576,433.619202 598.781738,435.834778 
	C600.224976,441.482727 596.353088,444.858398 591.141968,442.575562 
	C590.859924,441.393494 591.560791,440.652313 592.409241,440.108643 
	C596.935669,437.208221 594.241211,434.319702 592.146606,431.855835 
	C589.432556,428.663269 587.297363,431.311157 585.663330,433.299652 
	C581.275452,438.639343 577.108521,444.160645 572.360107,450.242218 
	C584.913025,448.360809 596.709656,446.919220 609.202332,446.538483 
	C607.735291,444.250000 606.638794,442.629639 605.640747,440.950745 
	C604.989014,439.854279 604.895081,438.649353 606.041626,437.819916 
	C607.192749,436.987152 608.308533,437.511536 609.155701,438.418793 
	C610.291077,439.634613 611.288025,440.978424 612.390930,442.226227 
	C616.473938,446.845917 617.722290,446.810944 621.612000,442.179321 
	C622.347046,441.304047 623.226868,440.278625 624.241272,439.956268 
	C628.793884,438.509644 633.245667,437.002655 635.429016,432.345581 
	C638.365051,433.979736 637.806763,435.843811 636.865845,437.426666 
	C635.488403,439.743774 633.635071,441.645416 630.813232,442.303741 
	C628.338562,442.881165 626.090088,443.799896 625.467834,446.740845 
	C625.993774,447.165527 626.330505,447.659637 626.745483,447.737793 
	C630.499695,448.444855 634.268311,449.074951 638.031311,449.735657 
	C643.319519,450.664185 646.568237,448.516174 647.533081,443.226044 
	C648.407227,438.433380 647.044678,434.312592 643.268738,431.122894 
	C641.997803,430.049316 640.578552,429.150024 639.319763,428.063690 
	C638.431885,427.297516 637.554810,426.304596 638.372437,425.047546 
	C639.179565,423.806488 640.443054,424.055206 641.482727,424.686920 
	C645.492920,427.123535 649.215759,429.737488 651.019348,434.483215 
	C653.423340,440.808624 651.743286,446.502289 648.664856,451.962738 
	C656.566589,456.079468 657.376709,455.819366 659.687073,447.800476 
	C660.835693,443.813873 662.015686,439.733948 662.330688,435.630890 
	C662.987305,427.079376 661.358215,419.054321 655.040283,412.585632 
	C652.724976,410.215088 650.253357,409.616577 646.773010,411.229675 
	C652.811523,414.966370 654.579285,420.711578 655.965759,426.607819 
	C656.407104,428.484833 656.935974,431.143677 654.246338,431.531372 
	C651.662170,431.903839 651.960999,429.263611 651.731812,427.532654 
	C651.117065,422.890747 649.221802,418.944672 644.993713,415.501434 
M600.761169,475.675598 
	C601.717224,476.818695 602.534302,478.126953 603.657227,479.071747 
	C606.312927,481.306183 609.064880,484.137787 612.869934,481.529785 
	C616.583801,478.984192 613.484924,476.236603 612.678345,473.598389 
	C612.630188,473.440826 612.538879,473.296539 612.468750,473.145538 
	C612.023438,472.186188 611.764587,471.170593 612.773865,470.462982 
	C613.998413,469.604553 615.034912,470.329559 615.799561,471.250000 
	C616.534241,472.134216 617.341248,473.114594 617.630188,474.184113 
	C618.586060,477.721832 621.138000,478.088135 624.206299,478.078278 
	C628.361755,478.064911 630.753540,475.460846 633.335266,472.756714 
	C636.749695,469.180511 638.726379,469.346436 640.744324,472.914307 
	C639.548767,474.598694 636.790649,474.136292 635.927429,476.149902 
	C633.400208,482.045197 628.169922,482.204865 622.966003,482.357971 
	C620.780457,482.422302 618.896545,482.573578 617.008179,484.156586 
	C612.586060,487.863617 608.310486,488.268158 603.860229,484.567261 
	C599.976257,481.337280 597.208496,482.109711 594.149231,485.002899 
	C594.168396,489.874786 597.333252,491.204315 601.351379,491.484650 
	C612.043579,492.230560 622.668884,491.982483 632.913879,488.397491 
	C639.645630,486.041992 645.489197,482.437744 649.281616,476.020020 
	C651.381042,472.467194 651.241150,469.983643 646.836731,469.058563 
	C639.056641,467.424377 631.488953,463.222717 623.189209,466.932770 
	C622.607727,467.192657 621.390015,466.879333 620.919495,466.394592 
	C618.504150,463.906097 615.462952,464.255981 612.491882,464.321564 
	C603.377563,464.522705 594.279297,465.096069 585.289185,466.613953 
	C583.012634,466.998322 580.341614,466.646301 577.968872,468.749023 
	C582.085083,472.084442 585.988464,475.145996 589.468445,478.700684 
	C591.462830,480.737823 593.876648,480.004211 595.606812,478.034576 
	C597.463135,475.921387 595.839172,474.415436 594.298706,473.014191 
	C593.259827,472.069214 591.481506,471.661743 591.897827,469.060028 
	C596.812073,468.050690 598.657410,471.491699 600.761169,475.675598 
M454.614441,594.972473 
	C453.258270,601.146118 451.868744,607.312683 450.552704,613.494873 
	C447.664368,627.063049 447.678253,626.957703 461.430664,626.794006 
	C464.958252,626.751953 466.318512,625.526978 467.002350,622.078247 
	C470.726593,603.295959 477.372406,585.639465 487.712982,569.413879 
	C490.121063,565.635315 492.856293,562.622437 497.022491,560.770020 
	C504.053802,557.643616 508.754547,552.152954 511.756805,545.154175 
	C512.327393,543.824097 513.383484,542.346375 511.865051,541.049133 
	C510.243134,539.663513 509.109009,541.040405 508.056885,542.080078 
	C501.061584,548.992554 492.582184,552.264343 482.826385,552.385376 
	C478.406586,552.440186 475.981506,554.120361 475.531555,559.003662 
	C474.792267,567.027832 471.278809,574.425720 464.033997,577.827271 
	C458.236084,580.549377 456.594574,584.447388 455.774475,589.770081 
	C455.546814,591.247803 455.168121,592.702332 454.614441,594.972473 
M453.672943,374.572662 
	C452.850861,368.948578 452.709808,363.332001 453.211151,357.646118 
	C453.689636,352.219299 454.735413,346.911438 455.811462,341.660736 
	C445.773438,366.977600 448.670654,390.771606 464.949432,412.702454 
	C474.037018,424.945374 486.661255,432.611847 500.205536,439.044617 
	C512.261780,444.770691 525.193604,448.279358 537.244751,453.991608 
	C539.940308,455.269318 541.520447,453.731110 543.419678,451.323212 
	C540.230225,450.099823 537.512207,448.946106 534.721924,448.006897 
	C524.616882,444.605438 514.646606,440.870361 504.907196,436.516571 
	C477.934814,424.459198 458.685272,405.954651 453.672943,374.572662 
M475.784302,333.378510 
	C472.675537,334.533661 469.580627,335.728058 466.453735,336.831787 
	C463.856445,337.748566 462.264191,339.207886 462.829254,342.245026 
	C464.948486,342.918884 466.272552,341.781219 467.596527,340.869385 
	C470.683807,338.743134 474.199860,337.734863 477.784332,337.046509 
	C486.100342,335.449524 495.245758,338.795044 498.084747,345.229401 
	C499.946777,349.449524 502.943176,351.098816 506.794617,352.265045 
	C511.694275,342.337982 504.358185,330.043732 493.308136,329.219452 
	C487.265930,328.768707 481.898743,330.920197 475.784302,333.378510 
M573.118286,341.502350 
	C566.471802,336.937073 559.864441,332.281891 551.298645,331.718628 
	C552.035828,336.793579 552.030334,336.812134 556.199341,338.050751 
	C562.464722,339.912231 566.466431,343.827759 567.873657,350.361115 
	C568.195679,351.856293 567.669312,353.744354 569.376343,354.943481 
	C572.075928,353.281952 574.705688,351.688477 578.073792,351.655182 
	C581.297119,351.623352 583.889160,353.695526 587.144165,354.216766 
	C586.827942,349.429260 584.928345,346.387207 580.548828,344.950409 
	C578.199585,344.179749 576.006897,342.932068 573.118286,341.502350 
M603.341553,361.489319 
	C605.064026,367.613770 603.886902,374.031158 604.988953,380.603455 
	C613.607422,376.945404 607.053162,368.876648 609.815369,363.635986 
	C613.402893,365.189423 613.133118,367.843231 613.314880,370.271606 
	C613.490417,372.617767 613.204773,375.106323 615.490234,377.294464 
	C617.508240,373.384155 616.653809,369.673096 616.693176,366.120209 
	C616.783691,357.957184 611.548462,354.088806 603.059814,355.849304 
	C601.989990,357.487091 603.237183,359.050903 603.341553,361.489319 
M490.404419,537.667969 
	C489.262451,540.150391 488.120483,542.632874 486.421173,546.326843 
	C493.587341,544.203552 499.482056,542.582275 503.918732,536.696716 
	C498.375061,533.219604 493.255676,530.008667 488.255798,526.872681 
	C480.728424,531.900330 481.090057,541.401550 475.049408,546.887268 
	C482.107574,544.722290 485.130981,539.187439 487.407166,533.002319 
	C487.946838,531.535889 487.936859,529.176697 490.317871,529.847290 
	C492.413483,530.437439 491.953491,532.419983 491.505585,534.082153 
	C491.246399,535.044067 490.963654,535.999695 490.404419,537.667969 
M590.622925,494.544952 
	C588.085449,485.493286 582.498413,478.894379 574.865295,473.498962 
	C569.210083,469.501617 564.085144,469.725739 558.028931,473.190948 
	C566.045532,475.752563 572.294434,480.067017 578.217896,485.375488 
	C582.058960,488.817810 585.629517,492.931793 590.622925,494.544952 
M401.418243,415.990082 
	C396.253265,412.264221 390.911621,412.041870 385.598816,415.509155 
	C381.434113,418.227173 379.457794,423.883087 380.663025,428.734192 
	C381.967590,433.985046 386.162872,437.857666 391.395996,438.641632 
	C396.601349,439.421509 401.810455,436.791443 404.377625,432.087219 
	C407.086578,427.123230 406.220673,421.485992 401.418243,415.990082 
M451.719757,519.243774 
	C447.341827,524.425354 446.072479,530.064514 449.438873,536.243164 
	C452.293121,541.481750 458.124786,544.470398 464.069519,543.624817 
	C469.007324,542.922485 472.897217,540.619995 475.052338,535.632080 
	C472.236877,534.710327 471.319305,536.726624 469.956177,537.733032 
	C465.092865,541.323547 459.442322,541.405945 455.287506,537.872986 
	C451.203064,534.399841 450.101837,528.586914 452.640411,523.900024 
	C455.436462,518.737732 460.641998,516.779785 466.594604,518.667358 
	C468.246124,519.191040 470.074982,520.475769 470.864563,517.592346 
	C464.000153,513.141968 459.192871,513.446655 451.719757,519.243774 
M609.591003,391.052063 
	C612.389221,388.945282 616.320129,387.545868 614.844666,382.740051 
	C609.436523,382.140259 604.244141,385.513763 603.390930,390.353241 
	C602.115845,397.585236 599.708923,404.458191 597.011719,411.240204 
	C595.847778,414.166870 594.423767,416.990143 592.539368,421.131866 
	C595.861023,418.914581 597.814697,417.341431 599.998657,416.214569 
	C603.421082,414.448761 604.544983,412.249115 603.584839,408.247467 
	C602.033203,401.780640 604.517517,396.226196 609.591003,391.052063 
M406.694458,566.396118 
	C403.632965,567.192505 400.571503,567.988831 396.534119,569.039001 
	C399.237671,570.025635 400.532501,571.442017 402.513794,571.474060 
	C413.415375,571.650269 433.222412,558.009583 438.304901,546.225769 
	C428.411011,554.423035 419.145447,562.237976 406.694458,566.396118 
M622.819885,372.367584 
	C630.163879,376.216034 636.011658,381.288910 637.045837,390.764618 
	C639.191101,388.828400 643.197144,388.564545 641.815063,385.425415 
	C637.946716,376.638733 631.461792,369.917450 623.044922,364.098267 
	C622.177490,367.100311 622.402710,369.381866 622.819885,372.367584 
M438.389618,559.887146 
	C439.511414,558.048340 440.696777,556.244629 441.736908,554.360718 
	C442.748718,552.528015 443.611847,550.613342 444.540253,548.734619 
	C435.247498,560.416443 424.802704,569.992432 409.645477,574.714478 
	C415.139374,577.084412 419.328156,576.719727 423.599945,574.013672 
	C429.295471,570.405701 434.110504,565.969604 438.389618,559.887146 
M398.260895,551.106812 
	C393.286316,551.877991 388.279480,552.410034 383.383850,553.391907 
	C398.633911,558.611816 411.427002,551.839966 424.079742,544.439209 
	C415.755951,546.604980 407.432159,548.770691 398.260895,551.106812 
M630.945007,414.472870 
	C631.657288,413.554169 632.481323,412.700958 633.063904,411.706299 
	C637.263428,404.535675 634.810303,396.748444 627.322937,393.340729 
	C620.533630,390.250763 612.331238,393.764771 609.711853,400.885559 
	C607.917053,405.764801 609.281372,411.758331 612.846130,414.654449 
	C618.072083,418.900208 624.203552,419.012512 630.945007,414.472870 
M403.047363,558.880493 
	C398.517761,560.303528 393.679840,559.933044 388.729950,560.838501 
	C394.897339,567.425537 417.242004,560.359741 425.734528,549.391846 
	C418.409912,553.188477 411.500977,556.826233 403.047363,558.880493 
M413.542694,530.059937 
	C406.233521,527.878662 398.947693,525.613403 391.600220,523.569824 
	C389.529266,522.993835 387.146088,521.877869 384.780426,524.641296 
	C397.184479,530.186829 409.986969,532.427002 423.203796,533.004822 
	C420.111145,532.466187 417.258118,531.222900 413.542694,530.059937 
M418.302460,515.214905 
	C415.746643,513.905396 413.262726,514.070740 410.209900,515.808044 
	C420.534210,519.890259 429.851105,525.180969 440.487274,527.044312 
	C433.621124,522.599182 426.520721,518.661499 418.302460,515.214905 
M408.417694,520.099670 
	C404.792419,518.982178 401.178925,516.837708 396.574005,520.222717 
	C408.275635,523.433960 418.715637,528.042908 430.179230,529.183777 
	C423.175415,526.233765 416.171570,523.283691 408.417694,520.099670 
M402.433533,536.925049 
	C406.196991,537.034241 409.938477,538.272400 413.761658,537.098999 
	C401.899048,536.485046 391.054657,531.499634 379.523621,529.341797 
	C385.699707,535.344849 393.670654,535.944763 402.433533,536.925049 
M429.865753,575.351257 
	C429.736145,575.638367 429.582886,575.918823 429.498016,576.218628 
	C429.482208,576.274475 429.745026,576.497925 429.872864,576.492554 
	C432.306702,576.389771 434.357086,575.272644 436.211884,573.847839 
	C444.102478,567.786621 447.338745,559.171936 449.371796,549.893799 
	C445.101074,559.873108 438.852600,568.313904 429.865753,575.351257 
M645.772827,395.297150 
	C643.196350,392.311707 641.285889,395.279999 640.280701,396.574768 
	C638.375916,399.028198 639.760498,402.451233 641.128052,404.349518 
	C642.898193,406.806549 645.773132,404.853760 648.069580,403.850983 
	C648.077637,400.803131 646.755798,398.440643 645.772827,395.297150 
M368.931915,412.922943 
	C365.253448,417.228790 363.901825,422.447083 362.641479,428.186493 
	C365.050903,428.095520 367.220581,428.418854 367.699432,425.738159 
	C368.542480,421.018768 370.132355,416.611176 373.002136,412.830658 
	C371.501373,411.663239 370.441132,411.680573 368.931915,412.922943 
M467.903687,562.266052 
	C465.471649,566.923523 459.686432,569.142761 457.941559,575.040527 
	C465.717407,573.430359 471.504028,564.478577 471.010834,555.883850 
	C470.107239,557.809753 469.203644,559.735718 467.903687,562.266052 
M455.712952,556.235229 
	C455.947662,553.915710 457.434021,551.640625 455.628937,548.098511 
	C452.778351,557.009766 450.229034,565.046997 445.291779,572.010681 
	C451.935211,569.101990 453.571472,562.931580 455.712952,556.235229 
M624.899719,378.751099 
	C620.080322,379.666077 622.591248,383.416382 621.656433,386.105469 
	C625.195374,386.957031 628.339600,387.713593 632.020874,388.599396 
	C630.892578,384.218628 629.005371,381.102631 624.899719,378.751099 
M384.595673,410.006653 
	C386.217041,406.270660 383.115509,403.760071 382.324219,399.333618 
	C380.808289,403.723877 377.990875,405.585114 375.402618,408.299744 
	C378.674927,409.239929 380.733002,412.191589 384.595673,410.006653 
M433.880005,514.782776 
	C431.426819,513.540833 429.120117,511.658356 425.377289,513.177490 
	C431.346130,516.877441 436.970795,520.046387 443.194580,522.075684 
	C441.510681,517.994629 437.589783,517.136108 433.880005,514.782776 
M436.506683,439.968079 
	C437.921875,441.687225 437.543518,443.900299 437.896057,447.007721 
	C440.580811,442.127960 438.725159,439.374054 435.853973,437.204834 
	C432.330750,434.542969 428.708405,434.825409 425.602356,438.044159 
	C422.860718,440.885162 422.391083,443.946869 425.398834,447.081146 
	C424.382111,443.346497 425.354553,440.253632 428.444122,438.102875 
	C431.250458,436.149231 433.774719,437.423187 436.506683,439.968079 
M604.152344,506.789948 
	C602.398193,512.146484 603.473083,515.558716 607.407471,516.627258 
	C610.633789,517.503479 613.502625,516.724060 615.107849,513.635071 
	C616.518433,510.920624 616.433655,507.979889 614.018127,505.831085 
	C610.923218,503.078003 607.664490,503.439819 604.152344,506.789948 
M399.298035,542.637695 
	C400.624329,542.552185 401.950592,542.466614 403.276886,542.381042 
	C394.881775,541.601379 386.956665,539.377563 379.018585,537.092590 
	C384.785248,541.652039 391.806732,541.533081 399.298035,542.637695 
M532.353210,460.535217 
	C531.572449,457.385101 529.281067,456.253510 524.403687,456.609375 
	C524.274292,462.638977 526.398499,463.864044 532.353210,460.535217 
M463.840210,555.360413 
	C464.411896,553.537292 465.693146,551.829041 464.400391,548.645081 
	C459.036377,552.320801 461.193542,558.340576 459.423218,562.691345 
	C460.810181,560.476013 462.197144,558.260681 463.840210,555.360413 
M377.717590,417.408600 
	C377.904602,416.732605 378.489899,415.275604 377.034332,416.209381 
	C373.928589,418.201782 372.614594,421.442352 372.332794,425.074066 
	C372.252228,426.112030 372.461823,427.221497 373.670532,427.379822 
	C375.202454,427.580444 375.611023,426.413818 375.671051,425.156738 
	C375.791260,422.640930 376.506683,420.281616 377.717590,417.408600 
M513.413513,453.242218 
	C512.984192,456.704895 514.969299,457.793976 517.943542,458.039795 
	C518.883362,453.099640 518.205811,452.291412 513.413513,453.242218 
M389.060394,547.594666 
	C389.859375,547.350586 391.050842,548.173279 391.480347,546.726685 
	C387.541473,545.850403 383.683624,544.992126 379.825775,544.133911 
	C381.839325,547.891785 385.423431,546.729980 389.060394,547.594666 
M445.616547,513.257263 
	C443.665619,511.735504 441.460754,512.108826 439.226990,512.358582 
	C441.603943,514.001648 443.841858,515.824951 446.896149,516.199768 
	C446.942413,515.452698 447.072021,515.093384 446.956116,514.851746 
	C446.749298,514.420410 446.394257,514.060120 445.616547,513.257263 
z"/>
<path fill="#000000" opacity="1.000000" stroke="none" 
	d="
M483.399719,687.454712 
	C481.392731,688.662720 479.666748,689.634644 477.312103,690.960510 
	C481.626770,696.908630 485.834351,702.709106 490.333099,708.911011 
	C485.156616,710.585510 481.298431,710.604370 478.478607,705.992859 
	C477.095337,703.730713 474.929688,701.887817 473.826996,699.524414 
	C470.526337,692.449951 464.799438,691.137085 457.797119,691.750977 
	C455.260193,691.973389 454.150299,692.706177 454.206421,695.258118 
	C454.279541,698.584412 454.136719,701.915833 454.228210,705.241211 
	C454.308807,708.169250 453.132294,709.448914 450.100647,709.408264 
	C447.405884,709.372070 446.059906,708.394592 446.060303,705.641418 
	C446.062347,690.831848 446.055328,676.022156 446.017151,661.212646 
	C446.009186,658.120300 447.538605,657.338684 450.449219,657.438477 
	C457.431091,657.677917 464.423523,657.641357 471.411804,657.656372 
	C478.892303,657.672424 484.797516,660.395569 487.719147,667.628601 
	C490.674835,674.945923 489.646393,681.641418 483.399719,687.454712 
M480.437500,671.396545 
	C478.679871,667.014526 475.390198,665.036560 470.724792,665.104187 
	C466.411194,665.166687 462.096283,665.132141 457.782104,665.164062 
	C455.987579,665.177307 454.328766,665.583557 454.299988,667.795471 
	C454.229828,673.184570 454.277130,678.575195 454.277130,683.841064 
	C460.026489,685.053406 464.989075,684.091736 469.931763,684.025208 
	C478.252899,683.913269 481.028564,680.683716 480.437500,671.396545 
z"/>
<path fill="#000000" opacity="1.000000" stroke="none" 
	d="
M398.626892,656.775330 
	C418.490143,659.906250 424.634460,677.901306 421.298187,690.784363 
	C417.888489,703.950989 404.498169,712.321838 389.888275,710.165771 
	C376.269562,708.155945 366.788086,695.866211 367.721954,681.434143 
	C368.613586,667.654419 379.936401,656.857483 393.685638,656.689392 
	C395.183441,656.671082 396.682068,656.721619 398.626892,656.775330 
M413.728516,685.262939 
	C415.122406,670.187927 400.632233,659.821716 387.186157,665.649414 
	C378.387482,669.462952 374.191895,678.915833 376.508087,688.559570 
	C378.689423,697.641846 386.156860,703.241821 395.594055,702.872559 
	C405.139435,702.499023 412.009186,696.139587 413.728516,685.262939 
z"/>
<path fill="#000000" opacity="1.000000" stroke="none" 
	d="
M570.906128,671.021973 
	C570.922180,657.613464 570.922180,657.620972 583.632141,657.614502 
	C591.124878,657.610657 598.619080,657.654236 606.109680,657.517822 
	C608.762207,657.469482 610.189880,658.188660 610.197876,661.100098 
	C610.205505,663.859741 608.964233,665.068909 606.296387,665.069336 
	C598.970032,665.070496 591.641602,665.197571 584.318298,665.054077 
	C580.851135,664.986206 579.114807,665.892029 579.231567,669.803467 
	C579.575378,681.325806 578.046570,679.524109 589.071777,679.670959 
	C593.899780,679.735291 598.729736,679.727478 603.557739,679.668213 
	C606.051941,679.637573 607.182800,680.695679 607.229309,683.231262 
	C607.275818,685.771912 606.105103,686.962219 603.680725,686.980835 
	C597.187500,687.030762 590.691162,687.150940 584.201538,687.002686 
	C580.612183,686.920654 579.132263,688.147278 579.224243,691.911438 
	C579.499329,703.163086 578.088379,701.823059 589.028564,701.915955 
	C594.855957,701.965454 600.684509,701.957764 606.511902,701.904541 
	C609.262695,701.879395 610.941711,702.762512 611.021362,705.857666 
	C611.107483,709.209473 609.204956,709.515076 606.514160,709.492554 
	C596.191833,709.406067 585.864746,709.334839 575.546753,709.573486 
	C571.964966,709.656311 570.831909,708.374023 570.863403,704.986023 
	C570.967102,693.830688 570.904297,682.673767 570.906128,671.021973 
z"/>
<path fill="#000000" opacity="1.000000" stroke="none" 
	d="
M733.927856,701.992310 
	C732.905579,698.439758 730.914856,697.173645 727.523010,697.319275 
	C722.209106,697.547363 716.851135,697.694824 711.561096,697.267090 
	C706.324707,696.843628 702.922729,698.320007 701.711060,703.727966 
	C700.527466,709.010681 697.143188,710.568298 691.763123,709.002930 
	C691.767822,704.768433 694.152100,701.241150 695.755005,697.583191 
	C700.960388,685.703979 706.514099,673.977844 711.851562,662.155701 
	C713.155884,659.266785 714.540894,657.088684 718.307739,657.056152 
	C721.984558,657.024353 723.080933,659.277466 724.300659,661.949585 
	C730.514709,675.563354 736.811890,689.139221 743.039124,702.747009 
	C743.852112,704.523499 744.429199,706.407837 745.114685,708.239746 
	C738.244385,710.597107 737.879272,710.389771 733.927856,701.992310 
M722.572449,676.870117 
	C721.206787,674.140259 720.316956,671.124756 717.678528,668.013611 
	C714.336182,675.489990 711.346436,682.177673 707.972900,689.723755 
	C715.210876,689.952393 721.295959,690.422852 728.077454,689.397766 
	C726.044312,684.807068 724.442749,681.190796 722.572449,676.870117 
z"/>
<path fill="#000000" opacity="1.000000" stroke="none" 
	d="
M674.237793,706.445190 
	C675.181335,707.955505 675.897888,709.508301 673.670044,709.575867 
	C670.119568,709.683289 666.655151,710.012390 664.245178,705.869019 
	C660.923462,700.158142 656.711975,694.964844 652.438965,688.924011 
	C647.450623,694.160339 644.296204,700.011047 640.385254,705.258301 
	C636.932678,709.890564 636.158325,710.232605 629.716675,708.574768 
	C629.895325,705.511414 632.277893,703.655579 633.830627,701.419739 
	C637.344910,696.359436 640.943481,691.347656 644.735901,686.494385 
	C646.835205,683.807800 646.802429,681.594727 644.770630,678.922791 
	C640.738831,673.620422 636.880737,668.184387 633.025269,662.750671 
	C632.100342,661.447144 630.682373,660.309814 630.922485,658.140991 
	C635.330383,657.037170 639.042969,657.031921 641.877808,661.742737 
	C644.768982,666.547119 648.376831,670.920166 652.048157,676.004333 
	C656.628235,671.089783 659.923828,665.953857 663.228638,660.882935 
	C665.947266,656.711548 669.339844,656.508362 674.402100,658.121948 
	C669.899414,664.493164 666.064514,670.697144 661.429260,676.230652 
	C657.762268,680.608154 657.747009,683.802734 661.390686,688.213562 
	C666.042297,693.844788 669.874817,700.152588 674.237793,706.445190 
z"/>
<path fill="#000000" opacity="1.000000" stroke="none" 
	d="
M342.020569,707.284790 
	C323.303558,715.948059 304.472626,706.459778 301.425110,687.164917 
	C299.725922,676.406921 305.106903,665.223083 314.454468,660.084778 
	C324.504578,654.560303 339.272858,655.698975 346.886383,662.856506 
	C350.927155,666.655273 346.040955,667.894592 344.688049,670.156860 
	C328.438049,662.077576 320.227753,662.456726 313.259979,671.465332 
	C307.684448,678.673828 308.066223,689.020325 314.180847,696.422607 
	C321.015167,704.696106 329.745941,704.912659 344.385254,697.094604 
	C346.245483,698.130249 347.663483,699.653259 348.787262,701.479370 
	C347.361572,704.443970 344.716278,705.616333 342.020569,707.284790 
z"/>
<path fill="#000000" opacity="1.000000" stroke="none" 
	d="
M532.262817,673.115784 
	C532.257507,683.095398 532.368042,692.595764 532.174561,702.089844 
	C532.115601,704.978943 533.966064,709.255249 528.223938,709.390503 
	C522.507141,709.525330 524.021240,705.330383 523.982605,702.348145 
	C523.846680,691.852234 523.777161,681.350098 524.003784,670.857300 
	C524.095459,666.610352 522.852600,664.574463 518.355774,665.016235 
	C516.048035,665.243042 513.695129,665.027344 511.363098,664.986816 
	C508.645416,664.939575 507.608551,663.548035 507.662323,660.840576 
	C507.718994,657.988708 509.400024,657.664673 511.611145,657.661194 
	C522.941895,657.643311 534.273132,657.639343 545.603027,657.519409 
	C548.182007,657.492065 549.208435,658.515747 549.242493,661.033203 
	C549.274292,663.376526 548.641418,664.974915 545.996521,665.030579 
	C543.997864,665.072693 541.998535,665.106750 539.999512,665.104736 
	C532.280823,665.096863 532.280823,665.090942 532.262817,673.115784 
z"/>
<path fill="#000000" opacity="1.000000" stroke="none" 
	d="
M636.779419,347.762024 
	C637.361938,341.836060 640.103271,338.850800 644.522583,338.882233 
	C648.388855,338.909729 651.848999,342.045044 652.290771,345.921082 
	C652.771851,350.142334 650.176453,353.950165 646.161987,354.912933 
	C642.068970,355.894531 638.825378,353.556976 636.779419,347.762024 
z"/>
<path fill="#000000" opacity="1.000000" stroke="none" 
	d="
M357.723236,482.627716 
	C353.960938,479.910522 352.442902,476.254425 351.359192,472.350952 
	C350.906647,470.720825 350.380646,468.733154 352.542206,468.149567 
	C354.907227,467.510986 354.931183,469.648468 355.358002,471.260986 
	C356.867065,476.962067 360.380951,480.362122 364.995087,480.624390 
	C368.319824,480.813354 370.284454,479.907074 368.671021,476.002838 
	C367.490356,473.145844 366.056152,471.046753 362.795929,469.841034 
	C355.772949,467.243866 353.288452,457.225677 357.797668,451.328033 
	C358.767883,450.059021 359.807861,449.087860 361.616180,449.904816 
	C363.041321,451.570099 361.667175,452.954285 361.099365,454.422882 
	C358.696564,460.637451 360.713470,464.989838 367.070801,466.507080 
	C369.307404,467.040894 370.572205,468.058167 371.407227,470.048218 
	C373.011475,473.871185 374.292114,477.852173 376.906311,481.190857 
	C377.978424,482.559967 377.840149,483.975128 376.545135,485.200836 
	C373.103302,488.458527 372.637238,492.301849 374.170471,496.619476 
	C374.708221,498.133942 375.628418,500.155609 373.268219,500.778320 
	C371.155670,501.335693 370.604889,499.247528 370.005249,497.735016 
	C368.597321,494.183655 368.767975,490.587769 369.875916,486.990143 
	C370.345154,485.466309 371.262177,484.016876 370.881470,481.850159 
	C366.538116,483.962860 362.388641,485.733795 357.723236,482.627716 
z"/>
<path fill="#000000" opacity="1.000000" stroke="none" 
	d="
M365.220581,504.784393 
	C370.602325,509.470795 376.280304,509.750427 382.228973,507.116272 
	C386.629089,505.167786 390.885620,502.891266 395.307434,500.997559 
	C396.853577,500.335419 399.190765,499.261353 400.170349,501.497559 
	C401.295441,504.065918 398.533661,504.261932 397.055908,504.988129 
	C392.289764,507.330261 387.591064,509.881775 382.643555,511.768250 
	C371.206512,516.129089 359.286194,509.897491 357.025635,498.648010 
	C356.421600,495.642242 356.622589,492.680267 357.915833,489.868774 
	C358.485413,488.630493 359.302917,487.392151 360.917450,487.875519 
	C362.722687,488.415985 362.273315,489.937469 361.900238,491.194183 
	C360.404999,496.230988 361.184784,500.712982 365.220581,504.784393 
z"/>
<path fill="#000000" opacity="1.000000" stroke="none" 
	d="
M507.665466,471.780762 
	C505.707672,473.868317 504.551880,472.085663 503.295227,471.222595 
	C492.539368,463.835541 481.167572,467.175537 476.308411,479.199829 
	C475.723175,480.648041 475.141266,482.156982 473.222595,481.636902 
	C471.804016,481.252380 472.018921,479.942047 472.089172,478.728119 
	C472.426880,472.893677 469.880005,469.722443 463.913025,468.451447 
	C462.411011,468.131500 459.949921,468.731171 460.280640,466.276154 
	C460.601807,463.891693 462.997803,464.342407 464.772980,464.468689 
	C467.954163,464.695038 470.535614,466.116119 475.192230,470.005005 
	C477.214417,469.973511 478.162872,468.133240 479.600189,467.128754 
	C487.400177,461.677368 497.870300,461.618011 504.699646,467.114716 
	C506.125122,468.262054 507.552704,469.441498 507.665466,471.780762 
z"/>
<path fill="#000000" opacity="1.000000" stroke="none" 
	d="
M395.031616,470.796082 
	C399.732300,467.390778 405.091522,466.281616 410.408752,467.164642 
	C414.053589,467.769928 416.031281,467.100952 417.538483,463.915741 
	C418.014038,462.910797 418.961578,462.073090 419.836700,461.327362 
	C420.968536,460.362823 422.333466,459.207764 423.779388,460.559235 
	C425.367828,462.043945 424.087250,463.169769 422.935181,464.243652 
	C419.672943,467.284637 418.510254,470.658325 420.880341,474.908203 
	C421.676117,476.335114 422.965942,478.634766 420.598053,479.685120 
	C418.083832,480.800415 417.834290,478.073059 417.007751,476.624878 
	C414.206024,471.716034 410.488007,470.464569 403.735321,471.724426 
	C400.893219,472.254669 397.737823,474.699158 395.031616,470.796082 
z"/>
<path fill="#000000" opacity="1.000000" stroke="none" 
	d="
M379.268860,448.474060 
	C386.163391,448.992310 387.857086,450.404785 387.545166,455.006409 
	C387.248718,455.141602 386.874786,455.461365 386.663147,455.376495 
	C379.796478,452.622620 379.800171,452.617310 377.197418,460.127747 
	C376.979919,460.755432 376.774658,461.394714 376.479462,461.986572 
	C375.763672,463.421448 375.260651,465.605774 373.124786,464.799500 
	C370.933044,463.972107 372.132416,462.021179 372.531219,460.483551 
	C372.903320,459.048798 373.305756,457.621918 373.683319,456.233765 
	C372.678467,454.423126 369.042328,456.012482 369.494873,452.896454 
	C369.854401,450.420563 372.173676,450.218628 374.038483,449.664825 
	C375.626099,449.193359 377.265961,448.897705 379.268860,448.474060 
z"/>
<path fill="#000000" opacity="1.000000" stroke="none" 
	d="
M382.347595,464.748169 
	C381.777527,471.018463 383.257416,475.809204 389.415161,478.266327 
	C390.219208,478.587097 390.484528,479.548981 390.320862,480.421143 
	C390.154449,481.308014 389.552704,482.007172 388.625793,481.959564 
	C384.269592,481.735870 381.587982,478.978912 379.996368,475.360992 
	C378.400696,471.733887 377.080719,467.796814 380.650238,464.365631 
	C380.874176,464.150360 381.580475,464.436951 382.347595,464.748169 
z"/>
<path fill="#000000" opacity="1.000000" stroke="none" 
	d="
M550.104858,354.836609 
	C547.773438,353.000885 545.448486,352.273804 542.863037,352.184418 
	C541.353455,352.132263 539.526367,351.972046 539.849976,349.835754 
	C540.129395,347.991119 541.864319,347.886139 543.411194,347.873108 
	C551.955078,347.801086 559.521423,356.065796 557.959351,365.118195 
	C557.006226,370.641479 558.624756,373.225769 563.352478,374.985718 
	C564.631042,375.461670 566.737366,375.913696 566.053894,377.895477 
	C565.275391,380.152863 563.075806,379.435333 561.845032,378.568024 
	C554.883606,373.662598 548.736572,376.740601 542.587036,380.234711 
	C541.496155,380.854523 540.425903,381.397766 539.542114,380.103760 
	C538.726562,378.909576 539.413452,377.878296 540.248657,376.994598 
	C541.658569,375.502838 543.493103,374.695404 545.348633,373.931641 
	C554.713501,370.076782 556.598816,363.022919 550.104858,354.836609 
z"/>
<path fill="#000000" opacity="1.000000" stroke="none" 
	d="
M529.165527,398.555664 
	C530.244507,396.612976 531.053345,394.960724 532.110168,393.486176 
	C533.007568,392.234039 534.346924,391.141541 535.921265,392.230591 
	C537.702454,393.462646 536.602417,394.875153 535.642334,396.045502 
	C532.970032,399.303009 531.984070,403.036621 532.184265,407.193085 
	C532.513916,414.039429 536.669250,417.515991 543.341125,416.347534 
	C545.142822,416.031982 547.288818,415.108398 547.740784,417.763458 
	C548.100403,419.876038 545.942993,420.274353 544.388245,420.748657 
	C536.615845,423.119873 528.827698,417.489960 527.789551,408.721436 
	C527.393616,405.377197 527.715637,402.079803 529.165527,398.555664 
z"/>
<path fill="#000000" opacity="1.000000" stroke="none" 
	d="
M584.837830,377.408203 
	C584.343140,378.707642 584.028076,379.661804 583.557617,380.531952 
	C582.808716,381.916931 581.762695,383.218201 580.033997,382.297577 
	C578.442444,381.449982 579.136719,379.960083 579.765320,378.798340 
	C582.274170,374.161835 579.945007,371.033264 575.852783,368.538239 
	C581.651306,365.774139 585.180420,369.498047 584.837830,377.408203 
z"/>
<path fill="#000000" opacity="1.000000" stroke="none" 
	d="
M422.906860,379.770203 
	C425.516174,378.463745 426.923737,379.791443 425.871155,381.630829 
	C421.056793,390.044037 427.879578,396.804260 428.701874,404.374695 
	C428.874634,405.965302 431.198914,407.972473 428.417694,408.885773 
	C426.218994,409.607819 425.259552,407.221680 424.885773,405.542847 
	C423.870239,400.981689 421.827942,396.876892 420.048309,392.616058 
	C418.173615,388.127533 419.947693,383.863770 422.906860,379.770203 
z"/>
<path fill="#000000" opacity="1.000000" stroke="none" 
	d="
M529.152954,528.793579 
	C514.994934,531.445312 507.520081,522.875366 506.169189,514.842102 
	C505.952393,513.552979 505.895782,512.199036 506.026367,510.901337 
	C506.128754,509.883850 506.812073,509.046600 507.991699,509.022125 
	C509.173309,508.997559 509.788696,509.793182 510.028809,510.824860 
	C510.215240,511.625641 510.172729,512.476624 510.294708,513.295898 
	C511.881500,523.949768 523.602478,528.683350 532.316833,522.225037 
	C533.634399,521.248596 535.007690,520.205078 536.523865,519.673035 
	C538.684692,518.914673 540.787231,519.045227 541.703674,522.437378 
	C536.990967,523.392029 533.991516,527.296936 529.152954,528.793579 
z"/>
<path fill="#000000" opacity="1.000000" stroke="none" 
	d="
M470.011780,400.009155 
	C469.208679,397.184631 469.748169,395.761627 473.222748,395.714233 
	C479.634338,395.626831 480.725433,394.121887 479.977081,387.984924 
	C479.409515,383.330597 480.747101,379.109344 483.196350,375.219360 
	C484.023438,373.905731 485.256683,372.764343 486.904053,373.848602 
	C488.428802,374.852081 487.570801,376.190491 486.905182,377.351318 
	C482.880463,384.370026 483.104431,390.893463 489.015778,396.863617 
	C489.805023,397.660675 490.377441,398.780640 490.752350,399.855042 
	C491.348175,401.562500 492.102478,403.792114 489.924500,404.641693 
	C487.664124,405.523407 487.454346,403.034149 486.853668,401.648651 
	C485.320648,398.112762 483.333313,396.655212 479.613342,399.151398 
	C476.975708,400.921295 473.851257,400.333405 470.427307,400.027405 
	C469.982727,399.980530 470.001556,400.000092 470.011780,400.009155 
z"/>
<path fill="#000000" opacity="1.000000" stroke="none" 
	d="
M614.125793,427.854248 
	C618.842651,425.536957 623.134521,425.780914 627.279724,428.281921 
	C628.299622,428.897308 629.122131,429.865234 628.745117,431.177887 
	C628.413757,432.331238 627.221130,432.805023 626.352356,432.282440 
	C620.700256,428.882233 616.001038,430.623383 611.925049,435.592926 
	C609.241089,431.510864 611.604553,429.803009 614.125793,427.854248 
z"/>
<path fill="#000000" opacity="1.000000" stroke="none" 
	d="
M460.761841,583.514648 
	C468.048584,581.836487 472.869598,577.536865 476.466095,571.610168 
	C480.829651,564.419434 486.295929,558.229126 493.299103,553.496643 
	C494.879333,552.428833 496.852814,550.534363 498.473755,552.822266 
	C499.969025,554.932739 497.562897,556.065369 496.152222,556.993042 
	C483.445831,565.348755 477.667786,578.411499 472.515228,591.838196 
	C470.437225,597.253113 468.958038,602.895630 467.108765,608.401855 
	C466.572418,609.998840 466.426270,612.610413 463.862000,611.831665 
	C461.775909,611.198181 462.566986,608.979919 462.981110,607.477234 
	C464.915283,600.458862 466.989288,593.479126 469.075531,586.270447 
	C466.442413,586.755493 463.909332,587.311707 461.347626,587.653931 
	C460.169647,587.811218 458.939301,587.399719 458.571106,586.058411 
	C458.166016,584.582764 459.199432,583.989319 460.761841,583.514648 
z"/>
<path fill="#000000" opacity="1.000000" stroke="none" 
	d="
M456.989563,603.191406 
	C457.935974,600.111450 458.706329,597.404053 459.642151,594.755005 
	C460.062744,593.564575 461.089508,592.843811 462.401062,593.335144 
	C463.633209,593.796814 464.224823,594.910095 463.785797,596.155579 
	C461.191528,603.515137 459.436554,611.078735 458.041962,618.742065 
	C457.826111,619.928162 457.071045,621.053528 455.683136,620.815002 
	C453.977814,620.521973 453.884094,619.127258 454.156433,617.708557 
	C455.060211,613.000732 455.972107,608.294495 456.989563,603.191406 
z"/>
<path fill="#000000" opacity="1.000000" stroke="none" 
	d="
M383.973572,428.892365 
	C382.703125,423.298462 384.620422,419.421295 389.296753,416.984192 
	C393.215942,414.941711 396.789093,416.103394 399.738220,418.977234 
	C403.155243,422.307007 404.027863,426.316925 401.975983,430.787933 
	C400.324585,434.386169 397.179657,435.842407 393.568939,436.038513 
	C388.765900,436.299408 386.079803,433.153900 383.973572,428.892365 
z"/>
<path fill="#000000" opacity="1.000000" stroke="none" 
	d="
M623.650452,416.214355 
	C616.958008,416.008942 612.953552,413.406006 611.385864,408.351196 
	C609.893433,403.539154 611.371277,399.466766 615.146667,396.353729 
	C618.985229,393.188538 623.350891,392.789185 627.641724,395.323700 
	C631.473145,397.586792 633.628479,401.122955 633.214478,405.673828 
	C632.706177,411.262115 629.322449,414.591705 623.650452,416.214355 
M623.945618,399.299225 
	C620.666321,398.610992 617.866333,399.257416 616.610474,402.665497 
	C615.520508,405.623505 616.198059,408.303314 619.162048,409.897919 
	C622.236511,411.551880 625.191101,411.065247 626.941345,408.042786 
	C628.845337,404.754974 628.228821,401.647156 623.945618,399.299225 
z"/>
<path fill="#000000" opacity="1.000000" stroke="none" 
	d="
M609.881226,505.211395 
	C613.822388,506.347382 615.550598,508.637146 614.299438,512.339722 
	C613.428711,514.916565 611.437134,516.568298 608.585266,515.814636 
	C605.708069,515.054260 604.275696,512.899719 604.581482,509.832672 
	C604.875122,506.886353 606.809021,505.607147 609.881226,505.211395 
z"/>
</svg>